<svg xmlns="http://www.w3.org/2000/svg" xmlns:xlink="http://www.w3.org/1999/xlink" version="1.1" style="" xml:space="preserve" width="85.35802471679509" height="78.70370369280204"><rect id="backgroundrect" width="100%" height="100%" x="0" y="0" fill="none" stroke="none" class="" style=""/>
<style type="text/css">
	.st0{fill:#FFFFFF;}
</style>

<g class="currentLayer" style=""><title>Layer 1</title><g id="svg_1" class="selected">
	<path class="st0" d="M37.64814805984497,45.42963032722473 c-5.3,0 -9.8,-8.5 -9.8,-15.4 c0,-0.8 -0.1,-1.8 -0.1,-2.8 c-0.3000000000000002,-4.1 -0.6000000000000004,-9.1 2.6,-12.5 c2.2,-2.3 5.6,-3.5 10.5,-3.5 c4.9,0 8.3,1.1 10.5,3.5 c3.1,3.3 2.8,8.4 2.6,12.4 c-0.1,1.1 -0.1,2.1 -0.1,2.9 C53.748148059844965,37.329630327224734 42.44814805984497,45.42963032722473 37.64814805984497,45.42963032722473 zM40.84814805984497,13.529630327224737 c-4.1,0 -7.1,0.9 -8.7,2.7 c-2.5,2.6 -2.2,6.9 -1.9,10.7 c0.1,1.1 0.1,2.1 0.1,3 c0,6 4,13.1 7.4,13.1 c3.8,0 13.7,-7.3 13.7,-13.1 c0,-1 0.1,-2 0.1,-3.1 c0.2,-3.8 0.5,-8 -1.9,-10.6 C47.84814805984497,14.429630327224729 44.94814805984497,13.529630327224737 40.84814805984497,13.529630327224737 z" id="svg_2"/>
	<path class="st0" d="M41.64814805984497,67.12963032722473 c-6.2,0 -12.3,-1.1 -16.2,-3 c-3.6,-1.7000000000000002 -5.6,-3.9 -5.6,-6.2 c0,0 0,-0.3000000000000002 0,-0.5 C20.14814805984497,51.729630327224726 20.14814805984497,51.62963032722473 20.14814805984497,51.62963032722473 c0.6000000000000004,-4.1 4.3,-7.2 8.4,-7.1 c1.7000000000000002,0 3.4,-0.7000000000000004 4.5,-1.9 c0.4,-0.5 1.2,-0.5 1.7000000000000002,-0.1 c0.5,0.4 0.5,1.2 0.1,1.7000000000000002 c-1.6,1.7000000000000002 -3.9,2.7 -6.3,2.7 c-3,-0.1 -5.6,2.1 -6.1,5 c0,0.2 -0.3000000000000002,5.5 -0.3000000000000002,5.5 c0,0.1 0,0.4 0,0.4 c0,1.4 1.5,2.9 4.2,4.1 c3.7,1.8 9.3,2.8 15.2,2.8 c3.6,-0.4 7.2,-0.9 10.7,-1.7000000000000002 c1,-0.2 1.8,-0.4 2.3,-0.5 c0.6000000000000004,-0.1 1.3,0.3000000000000002 1.4,1 c0.1,0.6000000000000004 -0.3000000000000002,1.3 -1,1.4 c-0.5,0.1 -1.3,0.3000000000000002 -2.3,0.4 C49.14814805984497,66.22963032722473 45.44814805984497,66.82963032722472 41.64814805984497,67.12963032722473 z" id="svg_3"/>
	<path class="st0" d="M58.048148059844976,47.52963032722474 c-0.2,0 -0.3000000000000002,0 -0.5,-0.1 c-0.8,-0.3000000000000002 -1.6,-0.5 -2.5,-0.5 c-4.5,0.1 -8.3,-3.5 -8.4,-8.1 c0,-0.7000000000000004 0.5,-1.2 1.2,-1.2 c0.7000000000000004,0 1.2,0.5 1.2,1.2 c0.1,3.2 2.8,5.8 6,5.7 c1.2,0 2.4,0.2 3.4,0.7000000000000004 c0.6000000000000004,0.3000000000000002 0.9,1 0.6000000000000004,1.6 C58.94814805984497,47.229630327224726 58.548148059844976,47.52963032722474 58.048148059844976,47.52963032722474 z" id="svg_4"/>
	<path class="st0" d="M60.14814805984497,64.92963032722474 c-0.7000000000000004,0 -1.2,-0.5 -1.2,-1.2 c0,0 0,0 0,0 v-12.8 c0,-0.7000000000000004 0.5,-1.2 1.2,-1.2 s1.2,0.5 1.2,1.2 v12.8 C61.248148059844965,64.42963032722474 60.748148059844965,64.92963032722474 60.14814805984497,64.92963032722474 C60.14814805984497,64.92963032722474 60.14814805984497,64.92963032722474 60.14814805984497,64.92963032722474 z" id="svg_5"/>
	<path class="st0" d="M66.44814805984497,58.52963032722474 h-12.8 c-0.7000000000000004,0 -1.2,-0.5 -1.2,-1.2 c0,-0.7000000000000004 0.5,-1.2 1.2,-1.2 h12.8 c0.7000000000000004,0 1.2,0.5 1.2,1.2 C67.64814805984497,58.02963032722474 67.14814805984497,58.52963032722474 66.44814805984497,58.52963032722474 z" id="svg_6"/>
</g></g></svg>