<svg xmlns="http://www.w3.org/2000/svg" xmlns:xlink="http://www.w3.org/1999/xlink" version="1.1" style="enable-background:new 0 0 206 213;" xml:space="preserve" width="80" height="80"><rect id="backgroundrect" width="100%" height="100%" x="0" y="0" fill="none" stroke="none" class="" style=""/>
<style type="text/css">
	.st0{fill:#FFFFFF;}
</style>

<g class="currentLayer" style=""><title>Layer 1</title><g id="svg_1" class="">
	<g id="svg_2">
		<g id="svg_3">
			<path class="st0" d="M56.034570094096765,23.882509547975133 c-4.193827223777771,-4.251027226448059 -9.655555701255798,-6.722554683685303 -15.507407641410827,-7.2168601751327515 l2.9259259700775146,-2.9658329486846924 l-1.0728395223617555,-1.0874720811843872 l-4.9740741491317735,5.041916012763977 l4.9740741491317735,5.041916012763977 l1.0728395223617555,-1.0874720811843872 l-3.120987701416016,-3.163555145263672 c11.898765611648559,0.790888786315918 21.261728715896606,10.874720811843872 21.261728715896606,23.03463590145111 c0,12.753081679344177 -10.240740895271301,23.1334969997406 -22.822222566604612,23.1334969997406 s-22.822222566604612,-10.380415320396423 -22.822222566604612,-23.1334969997406 c0,-0.4943054914474489 0,-0.9886109828948976 0.09753086566925052,-1.5817775726318362 l-1.5604938507080082,-0.09886109828948979 c0,0.5931665897369384 -0.09753086566925052,1.0874720811843872 -0.09753086566925052,1.6806386709213261 c0,6.623693585395813 2.5358025074005126,12.851942777633667 7.119753193855286,17.498414397239685 c4.583950686454774,4.646471619606018 10.728395223617554,7.2168601751327515 17.262963223457337,7.2168601751327515 s12.679012537002563,-2.5703885555267334 17.262963223457337,-7.2168601751327515 c4.583950686454774,-4.646471619606018 7.119753193855286,-10.874720811843872 7.119753193855286,-17.498414397239685 C63.15432328795205,34.757230359819005 60.61852078055155,28.52898116758115 56.034570094096765,23.882509547975133 z" id="svg_4"/>
		</g>
	</g>
	<g id="svg_5">
		<g id="svg_6">
			<path class="st0" d="M38.86913773630867,23.783648449685643 c-9.558024835586549,0 -17.262963223457337,7.81002676486969 -17.262963223457337,17.498414397239685 s7.704938387870789,17.498414397239685 17.262963223457337,17.498414397239685 s17.262963223457337,-7.81002676486969 17.262963223457337,-17.498414397239685 S48.42716257189524,23.783648449685643 38.86913773630867,23.783648449685643 zM38.86913773630867,57.19869967153318 c-8.680247044563293,0 -15.70246937274933,-7.117999076843262 -15.70246937274933,-15.916636824607851 s7.022222328186035,-15.916636824607851 15.70246937274933,-15.916636824607851 c8.680247044563293,0 15.70246937274933,7.117999076843262 15.70246937274933,15.916636824607851 S47.549384780871975,57.19869967153318 38.86913773630867,57.19869967153318 z" id="svg_7"/>
		</g>
	</g>
	<g id="svg_8">
		<g id="svg_9">
			<rect x="37.991356968879614" y="27.24378839831843" class="st0" width="1.5604938739611782" height="1.5817775962021585" id="svg_10"/>
		</g>
	</g>
	<g id="svg_11">
		<g id="svg_12">
			<rect x="50.96296507929574" y="40.39230994531863" class="st0" width="1.5604938739611782" height="1.5817775962021585" id="svg_13"/>
		</g>
	</g>
	<g id="svg_14">
		<g id="svg_15">
			<polygon class="st0" points="39.551856994628906,40.68889617919922 39.551856994628906,31.791397094726562 37.991355895996094,31.791397094726562 37.991355895996094,41.28205871582031 42.86790466308594,46.22511291503906 43.94075012207031,45.13764190673828 " id="svg_16"/>
		</g>
	</g>
</g></g></svg>