<svg xmlns="http://www.w3.org/2000/svg" xmlns:xlink="http://www.w3.org/1999/xlink" version="1.1" style="" xml:space="preserve" width="80" height="80"><rect id="backgroundrect" width="100%" height="100%" x="0" y="0" fill="none" stroke="none" class="" style=""/>
<style type="text/css">
	.st0{fill:#FFFFFF;}
</style>

<g class="currentLayer" style=""><title>Layer 1</title><g id="svg_1" class="">
	<path class="st0" d="M58.11320566079735,32.156084268634835 c-0.511646866798401,-8.43223911523819 -7.367714881896973,-15.198850750923157 -15.554064750671387,-15.198850750923157 c-5.014139294624329,0 -9.823619842529297,2.498441219329834 -12.893501043319702,6.558408200740814 c-0.10232937335968019,0 -0.10232937335968019,-0.10410171747207643 -0.20465874671936038,-0.10410171747207643 c-0.20465874671936038,-0.10410171747207643 -0.40931749343872076,-0.20820343494415286 -0.511646866798401,-0.20820343494415286 c-0.10232937335968019,0 -0.20465874671936038,-0.10410171747207643 -0.30698812007904086,-0.10410171747207643 c-0.20465874671936038,-0.10410171747207643 -0.40931749343872076,-0.10410171747207643 -0.6139762401580816,-0.20820343494415286 c-0.10232937335968019,0 -0.20465874671936038,-0.10410171747207643 -0.30698812007904086,-0.10410171747207643 c-0.20465874671936038,0 -0.40931749343872076,-0.10410171747207643 -0.6139762401580816,-0.10410171747207643 c-0.10232937335968019,0 -0.20465874671936038,0 -0.30698812007904086,0 c-0.30698812007904086,0 -0.6139762401580816,-0.10410171747207643 -0.9209643602371215,-0.10410171747207643 c-4.604821801185608,0 -8.288679242134094,3.747661828994751 -8.288679242134094,8.43223911523819 c0,0.10410171747207643 0,0.20820343494415286 0,0.31230515241622936 c-3.7861868143081665,2.0820343494415283 -6.446750521659851,6.558408200740814 -6.446750521659851,11.0347820520401 c0,6.6625099182128915 5.321127414703369,12.075799226760864 11.8702073097229,12.075799226760864 h4.707151174545288 c0.511646866798401,0 0.9209643602371215,-0.4164068698883058 0.9209643602371215,-0.9369154572486879 s-0.40931749343872076,-0.9369154572486879 -0.9209643602371215,-0.9369154572486879 h-4.707151174545288 c-5.5257861614227295,0 -10.028278589248657,-4.580475568771362 -10.028278589248657,-10.201968312263489 c0,-3.8517635464668274 2.455904960632324,-7.911730527877808 5.93510365486145,-9.57735800743103 l0.511646866798401,-0.20820343494415286 v-0.6246103048324587 c0,-0.10410171747207643 0,-0.20820343494415286 0,-0.31230515241622936 l0,-0.20820343494415286 l0,-0.20820343494415286 c0,-0.10410171747207643 0,-0.20820343494415286 0,-0.20820343494415286 c0,-3.6435601115226746 2.865222454071045,-6.558408200740814 6.446750521659851,-6.558408200740814 c0.30698812007904086,0 0.6139762401580816,0 0.8186349868774414,0.10410171747207643 c0.10232937335968019,0 0.10232937335968019,0 0.20465874671936038,0 c0.20465874671936038,0 0.511646866798401,0.10410171747207643 0.7163056135177617,0.20820343494415286 c0,0 0.10232937335968019,0 0.10232937335968019,0 c0.30698812007904086,0.10410171747207643 0.511646866798401,0.20820343494415286 0.8186349868774414,0.31230515241622936 c0.10232937335968019,0 0.10232937335968019,0.10410171747207643 0.20465874671936038,0.10410171747207643 c0.20465874671936038,0.10410171747207643 0.40931749343872076,0.20820343494415286 0.6139762401580816,0.4164068698883058 c1.7395993471145634,1.1451188921928406 2.967551827430725,3.227153241634369 2.967551827430725,5.51739102602005 c0,0.5205085873603821 0.40931749343872076,0.9369154572486879 0.9209643602371215,0.9369154572486879 c0.511646866798401,0 0.9209643602371215,-0.4164068698883058 0.9209643602371215,-0.9369154572486879 c0,-2.6025429368019104 -1.125623106956482,-4.8927807211875916 -2.967551827430725,-6.454306483268738 c2.6605637073516846,-3.539458394050598 6.958397388458252,-5.725594460964203 11.3585604429245,-5.725594460964203 c7.163056135177612,0 13.098159790039062,5.725594460964203 13.712136030197144,13.012714684009552 c-0.9209643602371215,-0.10410171747207643 -2.353575587272644,-0.10410171747207643 -3.7861868143081665,0.10410171747207643 c-0.511646866798401,0.10410171747207643 -0.8186349868774414,0.5205085873603821 -0.8186349868774414,1.0410171747207642 c0.10232937335968019,0.4164068698883058 0.511646866798401,0.8328137397766112 0.9209643602371215,0.8328137397766112 c0,0 0.10232937335968019,0 0.10232937335968019,0 c2.0465874671936035,-0.31230515241622936 4.195504307746887,0 4.297833681106567,0 c4.297833681106567,0.8328137397766112 7.572373628616333,4.8927807211875916 7.572373628616333,9.369154572486877 c0,5.205085873603821 -4.195504307746887,9.369154572486877 -9.209643602371216,9.369154572486877 h-3.6838574409484863 c-0.511646866798401,0 -0.9209643602371215,0.4164068698883058 -0.9209643602371215,0.9369154572486879 s0.40931749343872076,0.9369154572486879 0.9209643602371215,0.9369154572486879 h3.6838574409484863 c6.1397624015808105,0 11.051572322845459,-5.100984156131744 11.051572322845459,-11.242985486984253 C66.40188490293144,38.089882164543184 62.9226862087023,33.50940659577182 58.11320566079735,32.156084268634835 z" id="svg_2"/>
	<path class="st0" d="M39.07994221589684,64.5317184024506 c0.10232937335968019,0.10410171747207643 0.20465874671936038,0.10410171747207643 0.30698812007904086,0.20820343494415286 c0.20465874671936038,0.10410171747207643 0.511646866798401,0.10410171747207643 0.7163056135177617,0 c0.10232937335968019,0 0.20465874671936038,-0.10410171747207643 0.30698812007904086,-0.20820343494415286 l7.367714881896973,-7.495323657989502 c0.40931749343872076,-0.4164068698883058 0.40931749343872076,-0.9369154572486879 0,-1.3533223271369934 c-0.20465874671936038,-0.20820343494415286 -0.40931749343872076,-0.31230515241622936 -0.6139762401580816,-0.31230515241622936 c-0.20465874671936038,0 -0.511646866798401,0.10410171747207643 -0.6139762401580816,0.31230515241622936 l-5.83277428150177,5.933797895908356 v-19.258817732334137 c0,-0.5205085873603821 -0.40931749343872076,-0.9369154572486879 -0.9209643602371215,-0.9369154572486879 c-0.511646866798401,0 -0.9209643602371215,0.4164068698883058 -0.9209643602371215,0.9369154572486879 v19.258817732334137 l-5.83277428150177,-5.933797895908356 c-0.20465874671936038,-0.20820343494415286 -0.40931749343872076,-0.31230515241622936 -0.6139762401580816,-0.31230515241622936 s-0.511646866798401,0.10410171747207643 -0.6139762401580816,0.31230515241622936 c-0.40931749343872076,0.4164068698883058 -0.40931749343872076,0.9369154572486879 0,1.3533223271369934 L39.07994221589684,64.5317184024506 z" id="svg_3"/>
</g></g></svg>