<?xml version="1.0" encoding="utf-8"?>
<!-- Generator: Adobe Illustrator 21.0.2, SVG Export Plug-In . SVG Version: 6.00 Build 0)  -->
<svg version="1.1" id="Layer_1" xmlns="http://www.w3.org/2000/svg" xmlns:xlink="http://www.w3.org/1999/xlink" x="0px" y="0px"
	 viewBox="0 0 206 213" style="enable-background:new 0 0 206 213;" xml:space="preserve">
<style type="text/css">
	.st0{fill:#FFFFFF;}
</style>
<g>
	<g>
		<path class="st0" d="M98.8,134.3h-8l-0.1-0.1c-0.8-0.3-1.2-0.9-1.2-1.8c0-4.4,0-8.8,0-13.1l0-3.5l-1.2,0l-3.4,0
			c-1.5,0-1.9-1-1.9-1.8c0-2.2,0-4.4,0-6.6c0-1.2,0.7-1.8,1.8-1.8l3.4,0l1.1,0c0-0.4,0-0.9,0-1.3c0-1.2,0-2.4,0-3.5
			c0.1-2.8,1-5.2,2.7-7.1c1.6-1.9,3.8-3,6.2-3.2c1.5-0.1,2.9-0.2,4.4-0.2c0.6,0,1.2,0,1.8,0c0.4,0,0.9,0,1.3,0c1,0,1.7,0.7,1.7,1.7
			c0,2.1,0,4.2,0,6.3c0,1-0.7,1.7-1.7,1.7l-1.4,0c-1,0-2,0-2.9,0.1c-0.9,0-1.1,0.3-1.2,0.6c-0.2,0.3-0.2,0.6-0.2,0.9
			c0,1.1,0,2.3,0,3.4l0,0.6l5.4,0c1.3,0,1.9,0.6,1.9,1.9c0,2.2,0,4.3,0,6.5c0,1.2-0.6,1.8-1.9,1.9l-4,0l-1.5,0l0,3.6
			c0,4.3,0,8.7,0,13c0,0.9-0.4,1.6-1.1,1.9L98.8,134.3z M91.2,132.8h7.3c0.1-0.1,0.1-0.2,0.1-0.5c0-4.3,0-8.7,0-13l0-5.1l7,0
			c0.2,0,0.3,0,0.3,0c0,0,0-0.1,0-0.3c0-2.2,0-4.3,0-6.5c0-0.2,0-0.3,0-0.4c0,0-0.1,0-0.4,0l-6.9,0l0-2.1c0-1.2,0-2.3,0-3.4
			c0-0.5,0.2-1,0.4-1.5c0.4-0.9,1.3-1.4,2.5-1.4c1,0,2,0,3-0.1l1.4,0c0.2,0,0.2,0,0.2,0l0,0c0,0,0-0.1,0-0.2c0-2.1,0-4.2,0-6.3
			c0-0.1,0-0.2,0-0.2l0,0c0,0-0.1,0-0.2,0c-0.4,0-0.8,0-1.2,0c-0.6,0-1.2,0-1.8,0c-1.4,0-2.8,0-4.2,0.2c-2,0.2-3.8,1.1-5.2,2.7
			c-1.4,1.6-2.2,3.6-2.3,6.1c0,1.2,0,2.3,0,3.5c0,0.5,0,1,0,1.6v1.2l-6.1,0c-0.2,0-0.3,0-0.3,0c0,0,0,0.1,0,0.3c0,2.2,0,4.4,0,6.6
			c0,0.2,0,0.3,0,0.3c0,0,0.1,0,0.3,0l3.4,0l2.7,0l0,5c0,4.4,0,8.8,0,13.1C91.1,132.6,91.1,132.7,91.2,132.8z"/>
	</g>
</g>
</svg>
