<svg xmlns="http://www.w3.org/2000/svg" xmlns:xlink="http://www.w3.org/1999/xlink" version="1.1" style="enable-background:new 0 0 206 213;" xml:space="preserve" width="80" height="80"><rect id="backgroundrect" width="100%" height="100%" x="0" y="0" fill="none" stroke="none" class="" style=""/>
<style type="text/css">
	.st0{fill:#FFFFFF;}
</style>

<g class="currentLayer" style=""><title>Layer 1</title><g id="svg_1" class="">
	<g id="svg_2">
		<path class="st0" d="M64.68026523590089,15.43209533691406 H22.58026523590088 c-1,0 -1.8,0.8 -1.8,1.8 v1.8 h-1.8 c-1,0 -1.8,0.8 -1.8,1.8 v1.8 h-1.8 c-1,0 -1.8,0.8 -1.8,1.8 v34.2 c0,1 0.8,1.8 1.8,1.8 h42.1 c1,0 1.8,-0.8 1.8,-1.8 v-1.8 h1.8 c1,0 1.8,-0.8 1.8,-1.8 v-1.8 h1.8 c1,0 1.8,-0.8 1.8,-1.8 V17.232095336914057 C66.48026523590087,16.232095336914057 65.68026523590089,15.43209533691406 64.68026523590089,15.43209533691406 zM15.480265235900873,24.232095336914057 h42.1 l0,19.6 l-4.6,-5.3 c-0.3000000000000001,-0.4 -1,-0.4 -1.3,0 l-5.6,6.4 L31.08026523590088,31.532095336914068 c-0.3000000000000001,-0.3000000000000001 -0.8,-0.3000000000000001 -1.2,0 l-14.3,12.7 V24.232095336914057 zM57.680265235900876,55.832095336914065 v2.6 H15.480265235900873 v-11.9 l14.9,-13.3 l15.2,13.5 c0.2,0.2 0.4,0.2 0.6000000000000002,0.2 c0.2,0 0.5,-0.1 0.6000000000000002,-0.3000000000000001 l5.5,-6.3 l5.3,6 L57.680265235900876,55.832095336914065 C57.680265235900876,55.832095336914065 57.680265235900876,55.832095336914065 57.680265235900876,55.832095336914065 C57.680265235900876,55.832095336914065 57.680265235900876,55.832095336914065 57.680265235900876,55.832095336914065 zM61.180265235900876,54.93209533691406 h-1.8 V24.232095336914057 c0,-1 -0.8,-1.8 -1.8,-1.8 H19.08026523590088 v-1.8 h42.1 V54.93209533691406 L61.180265235900876,54.93209533691406 zM64.68026523590089,51.43209533691406 h-1.8 V20.732095336914057 c0,-1 -0.8,-1.8 -1.8,-1.8 H22.58026523590088 v-1.8 h42.1 V51.43209533691406 z" id="svg_3"/>
	</g>
</g></g></svg>