<svg xmlns="http://www.w3.org/2000/svg" xmlns:xlink="http://www.w3.org/1999/xlink" version="1.1" style="" xml:space="preserve" width="80" height="80"><rect id="backgroundrect" width="100%" height="100%" x="0" y="0" fill="none" stroke="none" class="" style=""/>
<style type="text/css">
	.st0{fill:#FFFFFF;}
</style>

<g class="currentLayer" style=""><title>Layer 1</title><g id="XMLID_2_" class="selected" transform="rotate(0.7288719415664673 38.86350631714032,41.84526824951188) ">
	<g id="XMLID_10_">
		<path id="XMLID_11_" class="st0" d="M38.863516883738285,14.445277658800308 l0.551433174353466,0.7274332914645156 c0.6617198092241594,0.9699110552860206 17.42528830956952,23.641581972596747 17.42528830956952,34.31060358074297 c0,10.911499371967729 -8.050924345560599,19.761937751452667 -17.976721483922983,19.761937751452667 c-9.925797138362384,0 -17.976721483922983,-8.850438379484936 -17.976721483922983,-19.761937751452667 c0,-10.669021608146224 16.763568500345357,-33.34069252545695 17.42528830956952,-34.31060358074297 L38.863516883738285,14.445277658800308 zM38.863516883738285,67.66914681762067 c9.153790694267531,0 16.653281865474664,-8.244243969931173 16.653281865474664,-18.307071168523635 c0,-9.092916143306441 -13.67554272396595,-28.49113724902685 -16.653281865474664,-32.49202035208169 c-2.8674525066380223,4.000883103054834 -16.653281865474664,23.399104208775242 -16.653281865474664,32.49202035208169 C22.3205216531343,59.424902847689495 29.70972618947075,67.66914681762067 38.863516883738285,67.66914681762067 z"/>
	</g>
	<g id="XMLID_3_">
		<path id="XMLID_4_" class="st0" d="M38.863516883738285,42.33022049827338 c4.521752029698419,0 8.161210980431294,4.000883103054834 8.161210980431294,8.971677261395689 c0,4.970794158340855 -3.6394589507328736,8.971677261395689 -8.161210980431294,8.971677261395689 c-4.521752029698419,0 -8.161210980431294,-4.000883103054834 -8.161210980431294,-8.971677261395689 C30.702305903307,46.452342483238965 34.45205148891056,42.33022049827338 38.863516883738285,42.33022049827338 zM38.863516883738285,58.81870843813573 c3.7497455856035673,0 6.837771361982975,-3.394688693501071 6.837771361982975,-7.5168106784666575 c0,-4.122121984965586 -3.088025776379408,-7.5168106784666575 -6.837771361982975,-7.5168106784666575 c-3.7497455856035673,0 -6.837771361982975,3.394688693501071 -6.837771361982975,7.5168106784666575 C32.136032156626,55.54525862654542 35.11377129813473,58.81870843813573 38.863516883738285,58.81870843813573 z"/>
	</g>
</g></g></svg>