<svg xmlns="http://www.w3.org/2000/svg" xmlns:xlink="http://www.w3.org/1999/xlink" version="1.1" style="enable-background:new 0 0 206 213;" xml:space="preserve" width="80" height="80"><rect id="backgroundrect" width="100%" height="100%" x="0" y="0" fill="none" stroke="none" class="" style=""/>
<style type="text/css">
	.st0{fill:#FFFFFF;}
</style>

<g class="currentLayer" style=""><title>Layer 1</title><g id="svg_1" class="">
	<g id="svg_2">
		<g id="svg_3">
			<path class="st0" d="M56.24339752197265,34.464780426025385 l-3.2,-3.2 c-0.1,-0.1 -0.1,-0.1 -0.2,-0.1 c0,0 0,-0.1 0,-0.1 c0,-8 -6.5,-14.5 -14.5,-14.5 S23.943397521972656,23.064780426025393 23.943397521972656,30.964780426025385 c0,2.4 0.6000000000000001,4.8 1.7000000000000002,6.9 l11.9,21.6 c0.2,0.30000000000000004 0.5,0.5 0.8,0.5 s0.6000000000000001,-0.2 0.8,-0.5 l5.7,-10.4 h9.3 c1.2,0 2.3,-1 2.3,-2.3 V35.06478042602539 C56.443397521972656,34.86478042602539 56.34339752197266,34.56478042602539 56.24339752197265,34.464780426025385 zM38.34339752197266,57.16478042602539 L27.243397521972653,36.964780426025385 c-1,-1.8 -1.5,-3.9 -1.5,-6 c0,-7 5.7,-12.7 12.7,-12.7 s12.7,5.7 12.7,12.7 h-5.4 c0,-4 -3.2,-7.2 -7.2,-7.2 s-7.2,3.2 -7.2,7.2 c0,4 3.2,7.2 7.2,7.2 v8.6 c0,1.2 1,2.3 2.3,2.3 h2.2 L38.34339752197266,57.16478042602539 zM43.84339752197266,32.764780426025396 h4.5 h2.7 v3.2 c0,0.2 -0.2,0.5 -0.5,0.5 h-6.3 c-0.2,0 -0.5,-0.2 -0.5,-0.5 V32.764780426025396 zM40.64339752197266,30.964780426025385 c-1.2,0 -2.3,1 -2.3,2.3 V36.36478042602539 c-3,0 -5.4,-2.4 -5.4,-5.4 c0,-3 2.4,-5.4 5.4,-5.4 s5.4,2.4 5.4,5.4 L40.64339752197266,30.964780426025385 L40.64339752197266,30.964780426025385 zM51.04339752197265,47.264780426025396 h-7.2 v-5.4 h7.2 V47.264780426025396 zM54.64339752197266,46.764780426025396 c0,0.2 -0.2,0.5 -0.5,0.5 h-1.4 v-6.3 c0,-0.5 -0.4,-0.9 -0.9,-0.9 h-9 c-0.5,0 -0.9,0.4 -0.9,0.9 v6.3 h-1.4 c-0.2,0 -0.5,-0.2 -0.5,-0.5 V33.264780426025396 c0,-0.2 0.2,-0.5 0.5,-0.5 h1.4 v3.2 c0,1.2 1,2.3 2.3,2.3 h6.3 c1.2,0 2.3,-1 2.3,-2.3 v-2.4 l1.8,1.8 V46.764780426025396 z" id="svg_4"/>
			<path class="st0" d="M47.443397521972656,33.66478042602539 v1.8 c0,0.5 0.4,0.9 0.9,0.9 c0.5,0 0.9,-0.4 0.9,-0.9 v-1.8 c0,-0.5 -0.4,-0.9 -0.9,-0.9 C47.84339752197266,32.764780426025396 47.443397521972656,33.16478042602539 47.443397521972656,33.66478042602539 z" id="svg_5"/>
		</g>
	</g>
</g></g></svg>