<svg xmlns="http://www.w3.org/2000/svg" xmlns:xlink="http://www.w3.org/1999/xlink" version="1.1" style="enable-background:new 0 0 206 213;" xml:space="preserve" width="80" height="80"><rect id="backgroundrect" width="100%" height="100%" x="0" y="0" fill="none" stroke="none" class="" style=""/>
<style type="text/css">
	.st0{fill:#FFFFFF;}
</style>

<g class="currentLayer" style=""><title>Layer 1</title><g id="svg_1" class="selected">
	<path class="st0" d="M41.058024001121524,27.12963104248047 c-7.5,0 -13.6,6.1 -13.6,13.6 c0,7.5 6.1,13.6 13.6,13.6 c7.5,0 13.6,-6.1 13.6,-13.6 C54.65802400112152,33.22963104248046 48.558024001121524,27.12963104248047 41.058024001121524,27.12963104248047 zM41.058024001121524,52.32963104248047 c-6.4,0 -11.6,-5.2 -11.6,-11.6 c0,-6.4 5.2,-11.6 11.6,-11.6 c6.4,0 11.6,5.2 11.6,11.6 C52.65802400112152,47.029631042480474 47.458024001121515,52.32963104248047 41.058024001121524,52.32963104248047 z" id="svg_2"/>
	<path class="st0" d="M64.55802400112152,34.82963104248047 h-2 c-0.5,-1.9 -1.2,-3.6 -2.2,-5.3 l1.4,-1.4 c0.5,-0.5 0.8,-1.2 0.8,-1.9 c0,-0.7000000000000002 -0.3000000000000001,-1.4 -0.8,-1.9 l-4.4,-4.4 c-1,-1 -2.8,-1 -3.8,0 l-1.4,1.4 c-1.7000000000000002,-1 -3.4,-1.7000000000000002 -5.3,-2.2 v-2 c0,-1.5 -1.2,-2.7 -2.7,-2.7 h-6.2 c-1.5,0 -2.7,1.2 -2.7,2.7 v2 c-1.9,0.5 -3.6,1.2 -5.3,2.2 l-1.4,-1.4 c-1,-1 -2.8,-1 -3.8,0 L20.35802400112152,24.429631042480466 c-0.5,0.5 -0.8,1.2 -0.8,1.9 c0,0.7000000000000002 0.3000000000000001,1.4 0.8,1.9 l1.4,1.4 c-1,1.7000000000000002 -1.7000000000000002,3.4 -2.2,5.3 h-2 c-1.5,0 -2.7,1.2 -2.7,2.7 v6.2 c0,1.5 1.2,2.7 2.7,2.7 h2 c0.5,1.9 1.2,3.6 2.2,5.3 l-1.4,1.4 c-0.5,0.5 -0.8,1.2 -0.8,1.9 c0,0.7000000000000002 0.3000000000000001,1.4 0.8,1.9 l4.4,4.4 c1,1 2.8,1 3.8,0 l1.4,-1.4 c1.7000000000000002,1 3.4,1.7000000000000002 5.3,2.2 v2 c0,1.5 1.2,2.7 2.7,2.7 h6.2 c1.5,0 2.7,-1.2 2.7,-2.7 v-2 c1.9,-0.5 3.6,-1.2 5.3,-2.2 l1.4,1.4 c1,1 2.8,1 3.8,0 l4.4,-4.4 c0.5,-0.5 0.8,-1.2 0.8,-1.9 c0,-0.7000000000000002 -0.3000000000000001,-1.4 -0.8,-1.9 l-1.4,-1.4 c1,-1.7000000000000002 1.7000000000000002,-3.4 2.2,-5.3 h2 c1.5,0 2.7,-1.2 2.7,-2.7 v-6.2 C67.25802400112153,36.029631042480474 65.95802400112152,34.82963104248047 64.55802400112152,34.82963104248047 zM65.25802400112153,43.82963104248047 c0,0.4 -0.3000000000000001,0.8 -0.8,0.8 h-3.5 l-0.2,0.7000000000000002 c-0.5,2.2 -1.4,4.2 -2.5,6.1 l-0.4,0.7000000000000002 l2.5,2.5 c0.3000000000000001,0.3000000000000001 0.3000000000000001,0.8 0,1.1 l-4.4,4.4 c-0.3000000000000001,0.3000000000000001 -0.8,0.3000000000000001 -1.1,0 l-2.5,-2.5 l-0.7000000000000002,0.4 c-1.9,1.2 -3.9,2 -6.1,2.5 l-0.7000000000000002,0.2 v3.5 c0,0.4 -0.3000000000000001,0.8 -0.8,0.8 h-6.2 c-0.4,0 -0.8,-0.3000000000000001 -0.8,-0.8 V60.62963104248047 l-0.7000000000000002,-0.2 c-2.2,-0.5 -4.2,-1.4 -6.1,-2.5 l-0.7000000000000002,-0.4 l-2.5,2.5 c-0.3000000000000001,0.3000000000000001 -0.8,0.3000000000000001 -1.1,0 l-4.4,-4.4 c-0.3000000000000001,-0.3000000000000001 -0.3000000000000001,-0.8 0,-1.1 l2.5,-2.5 l-0.4,-0.7000000000000002 c-1.2,-1.9 -2,-3.9 -2.5,-6.1 l-0.2,-0.7000000000000002 h-3.5 c-0.4,0 -0.8,-0.3000000000000001 -0.8,-0.8 v-6.2 c0,-0.4 0.3000000000000001,-0.8 0.8,-0.8 h3.5 l0.2,-0.7000000000000002 c0.5,-2.2 1.4,-4.2 2.5,-6.1 l0.4,-0.7000000000000002 l-2.5,-2.5 c-0.3000000000000001,-0.3000000000000001 -0.3000000000000001,-0.8 0,-1.1 l4.4,-4.4 c0.3000000000000001,-0.3000000000000001 0.8,-0.3000000000000001 1.1,0 l2.5,2.5 l0.7000000000000002,-0.4 c1.9,-1.2 3.9,-2 6.1,-2.5 l0.7000000000000002,-0.2 v-3.5 c0,-0.4 0.3000000000000001,-0.8 0.8,-0.8 h6.2 c0.4,0 0.8,0.3000000000000001 0.8,0.8 v3.5 l0.7000000000000002,0.2 c2.2,0.5 4.2,1.4 6.1,2.5 l0.7000000000000002,0.4 l2.5,-2.5 c0.3000000000000001,-0.3000000000000001 0.8,-0.3000000000000001 1.1,0 l4.4,4.4 c0.3000000000000001,0.3000000000000001 0.3000000000000001,0.8 0,1.1 l-2.5,2.5 l0.4,0.7000000000000002 c1.2,1.9 2,3.9 2.5,6.1 l0.2,0.7000000000000002 h3.5 c0.4,0 0.8,0.3000000000000001 0.8,0.8 V43.82963104248047 z" id="svg_3"/>
	<path class="st0" d="M41.058024001121524,31.029631042480474 c-5.3,0 -9.7,4.3 -9.7,9.7 c0,5.3 4.3,9.7 9.7,9.7 c5.3,0 9.7,-4.3 9.7,-9.7 C50.75802400112153,35.32963104248047 46.458024001121515,31.029631042480474 41.058024001121524,31.029631042480474 zM41.058024001121524,48.429631042480466 c-4.3,0 -7.7,-3.5 -7.7,-7.7 c0,-4.3 3.5,-7.7 7.7,-7.7 c4.3,0 7.7,3.5 7.7,7.7 C48.85802400112152,44.929631042480466 45.35802400112152,48.429631042480466 41.058024001121524,48.429631042480466 z" id="svg_4"/>
</g></g></svg>