<svg xmlns="http://www.w3.org/2000/svg" xmlns:xlink="http://www.w3.org/1999/xlink" version="1.1" style="enable-background:new 0 0 206 213;" xml:space="preserve" width="80" height="80"><rect id="backgroundrect" width="100%" height="100%" x="0" y="0" fill="none" stroke="none" class="" style=""/>
<style type="text/css">
	.st0{fill:#FFFFFF;}
</style>


<g class="currentLayer" style=""><title>Layer 1</title><g id="XMLID_14_" class="" transform="rotate(0.8523235321044922 39.27382659912161,42.5845947265624) ">
	<g id="XMLID_20_">
		<path id="XMLID_21_" class="st0" d="M39.378096336969975,65.57798893564177 l-0.5213922262191774,-0.625670671463013 c-0.625670671463013,-0.8342275619506835 -16.163159012794495,-19.812904596328735 -16.163159012794495,-28.780850887298584 c0,-9.17650318145752 7.508048057556152,-16.580272793769836 16.580272793769836,-16.580272793769836 c9.17650318145752,0 16.580272793769836,7.508048057556152 16.580272793769836,16.580272793769836 c0,8.967946290969849 -15.433209896087646,27.9466233253479 -16.163159012794495,28.780850887298584 L39.378096336969975,65.57798893564177 zM39.378096336969975,20.842535926036362 c-8.446554064750671,0 -15.328931450843811,6.88237738609314 -15.328931450843811,15.328931450843811 c0,7.612326502799988 12.617691874504091,23.984042406082153 15.328931450843811,27.320952653884888 c2.7112395763397217,-3.3369102478027344 15.328931450843811,-19.7086261510849 15.328931450843811,-27.320952653884888 C54.707027787813786,27.7249133121295 47.824650401720646,20.842535926036362 39.378096336969975,20.842535926036362 z"/>
	</g>
</g><g id="svg_1" class="">
	<path class="st0" d="M43.725163412094105,46.7201292514801 c-1.1,0 -2.1,-0.4 -2.8,-1.2 c-0.8,-0.8 -1.2,-1.8 -1.2,-2.9 l0,-0.1 l-5.3,-2.9 c-0.6000000000000006,0.5 -1.4,0.7000000000000006 -2.2,0.7000000000000006 c-2.2,0 -4,-1.8 -4,-4 c0,-2.2 1.8,-4 4,-4 c0.9,0 1.6,0.3000000000000003 2.3,0.8 l5.2,-2.7 c0,0 0,0 0,-0.1 c0,-2.2 1.8,-4 4,-4 c2.2,0 4,1.8 4,4 c0,2.2 -1.8,4 -4,4 c-0.9,0 -1.6,-0.3000000000000003 -2.3,-0.8 l-5.2,2.7 l0,0.2 l5.3,2.9 c0.6000000000000006,-0.5 1.4,-0.7000000000000006 2.2,-0.7000000000000006 c2.2,0 4,1.8 4,4 C47.725163412094105,44.92012925148009 45.92516341209412,46.7201292514801 43.725163412094105,46.7201292514801 zM34.42516341209412,38.520129251480114 c0.2,0 0.3000000000000003,0 0.5,0.1 l5.3,2.9 c0.4,0.2 0.6000000000000006,0.6000000000000006 0.5,1 c0,0.8 0.3000000000000003,1.6 0.9,2.2 c0.6000000000000006,0.6000000000000006 1.3,0.9 2.1,0.9 c1.6,0 3,-1.3 3,-3 c0,-1.6 -1.3,-3 -3,-3 c-0.6000000000000006,0 -1.2,0.2 -1.7000000000000002,0.5 c-0.3000000000000003,0.2 -0.7000000000000006,0.2 -1.1,0.1 l-5.3,-2.9 c-0.3000000000000003,-0.2 -0.6000000000000006,-0.6000000000000006 -0.5,-1 c0,-0.5 0.2,-0.9 0.5,-1.1 l5.2,-2.7 c0.3000000000000003,-0.2 0.8,-0.2 1.1,0.1 c0.5,0.4 1.1,0.6000000000000006 1.7000000000000002,0.6000000000000006 c1.6,0 3,-1.3 3,-3 c0,-1.6 -1.3,-3 -3,-3 c-1.6,0 -3,1.3 -3,3 c0,0.4 -0.2,0.8 -0.5,1 L35.025163412094116,34.020129251480114 c-0.3000000000000003,0.2 -0.8,0.2 -1.1,-0.1 c-0.5,-0.4 -1.1,-0.6000000000000006 -1.7000000000000002,-0.6000000000000006 c-1.6,0 -3,1.3 -3,3 c0,1.6 1.3,3 3,3 c0.6000000000000006,0 1.2,-0.2 1.7000000000000002,-0.5 C34.025163412094116,38.62012925148011 34.225163412094105,38.520129251480114 34.42516341209412,38.520129251480114 z" id="svg_2"/>
</g></g></svg>