<svg xmlns="http://www.w3.org/2000/svg" xmlns:xlink="http://www.w3.org/1999/xlink" version="1.1" style="enable-background:new 0 0 206 213;" xml:space="preserve" width="80" height="80"><rect id="backgroundrect" width="100%" height="100%" x="0" y="0" fill="none" stroke="none" class="" style=""/>
<style type="text/css">
	.st0{fill:#FFFFFF;}
</style>

<g class="currentLayer" style=""><title>Layer 1</title><g id="svg_1" class="">
	<path class="st0" d="M60.15157546997071,30.859753417968747 c-0.5,-8.5 -7.5,-15.2 -15.9,-15.2 c-5.1,0 -10.1,2.5 -13.1,6.6 c-0.1,0 -0.1,-0.1 -0.2,-0.1 c-0.2,-0.1 -0.4,-0.2 -0.6000000000000001,-0.30000000000000004 c-0.1,0 -0.2,-0.1 -0.30000000000000004,-0.1 c-0.2,-0.1 -0.4,-0.1 -0.6000000000000001,-0.2 c-0.1,0 -0.2,-0.1 -0.30000000000000004,-0.1 c-0.2,0 -0.4,-0.1 -0.6000000000000001,-0.1 c-0.1,0 -0.2,0 -0.30000000000000004,0 c-0.30000000000000004,0 -0.6000000000000001,-0.1 -0.9,-0.1 c-4.7,0 -8.5,3.8 -8.5,8.5 c0,0.1 0,0.2 0,0.4 c-3.9,2.1 -6.6,6.6 -6.6,11.1 c0,6.7 5.4,12.1 12.1,12.1 h4.9 c0.5,0 0.9,-0.4 0.9,-0.9 s-0.4,-0.9 -0.9,-0.9 H24.251575469970703 c-5.6,0 -10.2,-4.6 -10.2,-10.2 c0,-3.9 2.5,-8 6.1,-9.6 l0.5,-0.30000000000000004 v-0.6000000000000001 c0,-0.1 0,-0.2 0,-0.4 l0,-0.2 l0,-0.2 c0,-0.1 0,-0.2 0,-0.2 c0,-3.6 3,-6.6 6.6,-6.6 c0.30000000000000004,0 0.6000000000000001,0 0.9,0.1 c0.1,0 0.1,0 0.2,0 c0.30000000000000004,0 0.5,0.1 0.7000000000000001,0.2 c0,0 0.1,0 0.1,0 c0.30000000000000004,0.1 0.5,0.2 0.8,0.30000000000000004 c0.1,0 0.1,0.1 0.2,0.1 c0.2,0.1 0.5,0.2 0.7000000000000001,0.4 c1.8,1.2 3,3.2 3,5.5 c0,0.5 0.4,0.9 0.9,0.9 s0.9,-0.4 0.9,-0.9 c0,-2.6 -1.2,-4.9 -3,-6.5 c2.7,-3.5 7.1,-5.8 11.6,-5.8 c7.3,0 13.3,5.8 14,13.1 c-1,-0.1 -2.4,-0.1 -3.8,0.1 c-0.5,0.1 -0.9,0.6000000000000001 -0.8,1.1 c0.1,0.5 0.5,0.8 0.9,0.8 c0,0 0.1,0 0.1,0 c2.1,-0.30000000000000004 4.3,0 4.4,0 c4.4,0.8 7.7,4.9 7.7,9.4 c0,5.2 -4.2,9.4 -9.4,9.4 h-3.7 c-0.5,0 -0.9,0.4 -0.9,0.9 s0.4,0.9 0.9,0.9 h3.7 c6.2,0 11.3,-5.1 11.3,-11.3 C68.55157546997071,36.75975341796875 64.9515754699707,32.159753417968744 60.15157546997071,30.859753417968747 z" id="svg_2"/>
	<path class="st0" d="M41.951575469970706,40.35975341796875 c-0.1,-0.1 -0.2,-0.2 -0.30000000000000004,-0.2 c-0.2,-0.1 -0.5,-0.1 -0.7000000000000001,0 c-0.1,0 -0.2,0.1 -0.30000000000000004,0.2 l-7.5,7.5 c-0.4,0.4 -0.4,1 0,1.3 c0.2,0.2 0.4,0.30000000000000004 0.7000000000000001,0.30000000000000004 c0.2,0 0.5,-0.1 0.7000000000000001,-0.30000000000000004 l5.9,-5.9 v19.4 c0,0.5 0.4,0.9 0.9,0.9 s0.9,-0.4 0.9,-0.9 v-19.4 l5.9,5.9 c0.2,0.2 0.4,0.30000000000000004 0.7000000000000001,0.30000000000000004 c0.2,0 0.5,-0.1 0.7000000000000001,-0.30000000000000004 c0.4,-0.4 0.4,-1 0,-1.3 L41.951575469970706,40.35975341796875 z" id="svg_3"/>
</g></g></svg>