<svg xmlns="http://www.w3.org/2000/svg" xmlns:xlink="http://www.w3.org/1999/xlink" version="1.1" style="enable-background:new 0 0 206 213;" xml:space="preserve" width="68.89308463926864" height="68.34591498638429"><rect id="backgroundrect" width="100%" height="100%" x="0" y="0" fill="none" stroke="none" class="" style=""/>
<style type="text/css">
	.st0{fill:#FFFFFF;}
</style>

<g class="currentLayer" style=""><title>Layer 1</title><g id="svg_1" class="selected">
	<path class="st0" d="M46.02264251708985,30.170439147949224 C46.02264251708985,30.170439147949224 46.02264251708985,30.170439147949224 46.02264251708985,30.170439147949224 C46.02264251708985,30.170439147949224 46.02264251708985,30.170439147949224 46.02264251708985,30.170439147949224 L46.02264251708985,30.170439147949224 z" id="svg_2"/>
	<path class="st0" d="M44.32264251708985,29.27043914794922 c-0.30000000000000004,-0.5 -0.6000000000000001,-1 -0.9,-1.5 H21.122642517089844 c-1.2,0 -2.2,1 -2.2,2.2 v2.6 c0,1.2 1,2.2 2.2,2.2 h13 c0.1,0 0.2,0.1 0.2,0.2 v3.6 c0,1.3 1,2.3 2.3,2.3 h5.9 c0.30000000000000004,0 0.5,0.2 0.5,0.5 v8.3 c0,0.30000000000000004 -0.2,0.5 -0.5,0.5 H29.92264251708984 c-0.4,0.7000000000000001 -0.8,1.4 -1.2,2.1 c-0.1,0.2 -0.2,0.30000000000000004 -0.4,0.4 h14.3 c1.6,0 3,-1.3 3,-3 v-8.3 c0,-1.6 -1.3,-3 -3,-3 h-5.7 v-3.4 c0,-1.5 -1.2,-2.7 -2.7,-2.7 H21.42264251708984 v-2.1 h24.6 C45.32264251708985,30.170439147949224 44.72264251708984,29.870439147949213 44.32264251708985,29.27043914794922 z" id="svg_3"/>
	<path class="st0" d="M26.92264251708984,38.47043914794922 c-2.6,0 -4.6,2.1 -4.6,4.6 c0,2 2.7,6.5 4,8.5 c0.1,0.2 0.4,0.4 0.7000000000000001,0.4 c0.30000000000000004,0 0.5,-0.1 0.7000000000000001,-0.4 c1.3,-2 4,-6.5 4,-8.5 C31.622642517089844,40.47043914794922 29.52264251708985,38.47043914794922 26.92264251708984,38.47043914794922 zM26.92264251708984,45.37043914794921 c-1.2,0 -2.1,-0.9 -2.1,-2.1 c0,-1.2 0.9,-2.1 2.1,-2.1 c1.2,0 2.1,0.9 2.1,2.1 C29.02264251708985,44.47043914794922 28.122642517089844,45.37043914794921 26.92264251708984,45.37043914794921 z" id="svg_4"/>
	<path class="st0" d="M46.02264251708985,15.470439147949222 c-2.6,0 -4.6,2.1 -4.6,4.6 c0,2 2.7,6.5 4,8.5 c0.1,0.2 0.4,0.4 0.7000000000000001,0.4 c0.30000000000000004,0 0.5,-0.1 0.7000000000000001,-0.4 c1.3,-2 4,-6.5 4,-8.5 C50.72264251708984,17.47043914794922 48.622642517089844,15.470439147949222 46.02264251708985,15.470439147949222 zM46.02264251708985,22.370439147949213 c-1.2,0 -2.1,-0.9 -2.1,-2.1 c0,-1.2 0.9,-2.1 2.1,-2.1 c1.2,0 2.1,0.9 2.1,2.1 C48.122642517089844,21.47043914794922 47.22264251708984,22.370439147949213 46.02264251708985,22.370439147949213 z" id="svg_5"/>
</g></g></svg>