<svg xmlns="http://www.w3.org/2000/svg" xmlns:xlink="http://www.w3.org/1999/xlink" version="1.1" style="enable-background:new 0 0 206 213;" xml:space="preserve" width="80" height="80"><rect id="backgroundrect" width="100%" height="100%" x="0" y="0" fill="none" stroke="none" class="" style=""/>
<style type="text/css">
	.st0{fill:#FFFFFF;}
</style>

<g class="currentLayer" style=""><title>Layer 1</title><g id="svg_1" class="">
	<g id="svg_2">
		<path class="st0" d="M22.919754028320312,47.39876251220703 c-5.3,0 -9.8,-8.5 -9.8,-15.4 c0,-0.8 -0.1,-1.8 -0.1,-2.8 c-0.30000000000000004,-4.1 -0.6000000000000001,-9.1 2.6,-12.5 c2.2,-2.3 5.6,-3.5 10.5,-3.5 c4.9,0 8.3,1.1 10.5,3.5 c3.1,3.3 2.8,8.4 2.6,12.4 c-0.1,1.1 -0.1,2.1 -0.1,2.9 C39.01975402832031,39.298762512207034 27.71975402832031,47.39876251220703 22.919754028320312,47.39876251220703 zM26.119754028320315,15.498762512207037 c-4.1,0 -7.1,0.9 -8.7,2.7 c-2.5,2.6 -2.2,6.9 -1.9,10.7 c0.1,1.1 0.1,2.1 0.1,3 c0,6 4,13.1 7.4,13.1 c3.8,0 13.7,-7.3 13.7,-13.1 c0,-1 0.1,-2 0.1,-3.1 c0.2,-3.8 0.5,-8 -1.9,-10.6 C33.119754028320315,16.39876251220703 30.21975402832031,15.498762512207037 26.119754028320315,15.498762512207037 z" id="svg_3"/>
		<path class="st0" d="M26.919754028320312,69.09876251220703 c-6.2,0 -12.3,-1.1 -16.2,-3 c-3.6,-1.7000000000000002 -5.6,-3.9 -5.6,-6.2 c0,0 0,-0.30000000000000004 0,-0.5 c0.30000000000000004,-5.6 0.30000000000000004,-5.7 0.30000000000000004,-5.8 c0.6000000000000001,-4.1 4.3,-7.2 8.4,-7.1 c1.7000000000000002,0 3.4,-0.7000000000000001 4.5,-1.9 c0.4,-0.5 1.2,-0.5 1.7000000000000002,-0.1 c0.5,0.4 0.5,1.2 0.1,1.7000000000000002 c-1.6,1.7000000000000002 -3.9,2.7 -6.3,2.7 c-3,-0.1 -5.6,2.1 -6.1,5 c0,0.2 -0.30000000000000004,5.5 -0.30000000000000004,5.5 c0,0.1 0,0.4 0,0.4 c0,1.4 1.5,2.9 4.2,4.1 c3.7,1.8 9.3,2.8 15.2,2.8 c3.6,-0.4 7.2,-0.9 10.7,-1.7000000000000002 c1,-0.2 1.8,-0.4 2.3,-0.5 c0.6000000000000001,-0.1 1.3,0.30000000000000004 1.4,1 c0.1,0.6000000000000001 -0.30000000000000004,1.3 -1,1.4 c-0.5,0.1 -1.3,0.30000000000000004 -2.3,0.4 C34.41975402832031,68.19876251220703 30.71975402832031,68.79876251220702 26.919754028320312,69.09876251220703 z" id="svg_4"/>
		<path class="st0" d="M43.31975402832032,49.49876251220704 c-0.2,0 -0.30000000000000004,0 -0.5,-0.1 c-0.8,-0.30000000000000004 -1.6,-0.5 -2.5,-0.5 c-4.5,0.1 -8.3,-3.5 -8.4,-8.1 c0,-0.7000000000000001 0.5,-1.2 1.2,-1.2 c0.7000000000000001,0 1.2,0.5 1.2,1.2 c0.1,3.2 2.8,5.8 6,5.7 c1.2,0 2.4,0.2 3.4,0.7000000000000001 c0.6000000000000001,0.30000000000000004 0.9,1 0.6000000000000001,1.6 C44.21975402832031,49.198762512207026 43.81975402832032,49.49876251220704 43.31975402832032,49.49876251220704 z" id="svg_5"/>
	</g>
	<path class="st0" d="M70.31975402832032,50.798762512207034 C70.31975402832032,50.798762512207034 70.31975402832032,50.798762512207034 70.31975402832032,50.798762512207034 c-0.1,-0.1 -0.1,-0.1 -0.2,-0.1 c-0.9,-0.4 -1.9,-0.6000000000000001 -2.9,-0.6000000000000001 c-2.7,0.1 -5,-2.1 -5.1,-4.8 c2.2,-2.3 3.9,-5 3.9,-7.6 c0,-0.8 0.1,-1.6 0.1,-2.5 c0.2,-3.4 0.5,-7.7 -2.2,-10.5 c-1.8,-2 -4.8,-2.9 -8.9,-2.9 c-4.1,0 -7,1 -8.9,2.9 c-2.7,2.9 -2.4,7.2 -2.2,10.6 c0.1,0.9 0.1,1.7000000000000002 0.1,2.4 c0,3.9 1.7000000000000002,8.4 4.2,11 c-1,0.9 -2.2,1.4 -3.5,1.4 c-3.5,-0.1 -6.6,2.5 -7.2,6 c0,0 0,0.1 -0.30000000000000004,4.9 c0,0.1 0,0.4 0,0.4 c0,2 1.6,3.8 4.7,5.3 c3.4,1.6 8.5,2.6 13.7,2.6 c3.2,-0.30000000000000004 6.4,-0.8 9.5,-1.5 c0.7000000000000001,-0.1 1.3,-0.30000000000000004 1.7000000000000002,-0.30000000000000004 c0.1,0 0.1,0 0.2,0 c0,0 0.1,0 0.1,0 c0.1,0 6,-0.5 6.4,-7.7 C74.1197540283203,52.49876251220704 70.5197540283203,50.89876251220703 70.31975402832032,50.798762512207034 zM46.01975402832031,35.09876251220703 c-0.2,-3.2 -0.4,-6.9 1.7000000000000002,-9.1 c1.4,-1.5 3.9,-2.3 7.4,-2.3 c3.5,0 6,0.8 7.4,2.3 c2.1,2.2 1.8,5.8 1.6,9 c-0.1,0.9 -0.1,1.8 -0.1,2.6 c0,4.9 -8.4,11.1 -11.6,11.1 c-2.9,0 -6.3,-6 -6.3,-11.1 C46.21975402832031,36.89876251220703 46.119754028320315,35.99876251220704 46.01975402832031,35.09876251220703 zM71.71975402832032,59.39876251220703 c-0.30000000000000004,4.8 -3.5,5.7 -4.4,5.8 c-0.1,0 -0.30000000000000004,-0.1 -0.4,0 c-0.4,0.1 -1.1,0.2 -1.9,0.4 c-3,0.7000000000000001 -6,1.2 -9.1,1.5 c-5,0 -9.8,-0.9 -12.9,-2.4 c-2.3,-1.1 -3.6,-2.3 -3.6,-3.5 c0,0 0,-0.2 0,-0.30000000000000004 c0,0 0.2,-4.5 0.2,-4.7 c0.4,-2.5 2.6,-4.3 5.2,-4.2 c1.9,0 3.8,-0.8 5.1,-2.1 c0.8,0.5 1.7000000000000002,0.8 2.6,0.8 c1.9,0 5.1,-1.6 7.9,-3.9 c0.8,3 3.6,5.3 6.9,5.2 c0.7000000000000001,0 1.4,0.1 2.1,0.4 c0,0 0.1,0 0.1,0 c0.1,0 0.1,0.1 0.2,0.1 C69.6197540283203,52.698762512207026 72.0197540283203,53.89876251220703 71.71975402832032,59.39876251220703 z" id="svg_6"/>
</g></g></svg>